#!OML:ASF H:\BabyWalks\Project 1\Capture day 1\Session 1\baby.ASF
:FULLY-SPECIFIED
:DEGREES
478
root -2.59543 17.5532 -10.4672 225.586 74.6704 219.664
lowerback 20.2066 1.38096 -2.05342
upperback 3.55432 1.55449 -0.982871
thorax -7.46166 0.897449 -0.312309
lowerneck -3.05644 -3.55735 1.89173
upperneck -5.06187 -4.29411 9.11428
head -0.896566 -2.17079 2.54697
rclavicle -1.59028e-014 -3.18055e-015
rhumerus -51.6485 8.73216 -86.7336
rradius 60.4322
rwrist -5.04911
rhand -20.3923 -21.4546
rfingers 7.12502
rthumb 5.96107 -51.3507
lclavicle -1.59028e-014 -3.18055e-015
lhumerus -57.4138 -7.90072 70.9028
lradius 47.7701
lwrist -6.50458
lhand -3.9915 -0.544156
lfingers 7.12502
lthumb 21.7621 28.2525
rfemur -8.13163 25.3556 20.8406
rtibia 34.6819
rfoot -18.3126 5.02519
rtoes -8.83515
lfemur -25.0319 2.66894 2.49763
ltibia 38.011
lfoot -21.7497 -9.76776
ltoes -5.59309
479
root -2.53299 17.5738 -10.5396 225.343 74.7146 219.209
lowerback 20.3968 1.22686 -2.35005
upperback 3.54859 1.27483 -1.1287
thorax -7.5682 0.770384 -0.232622
lowerneck -3.15108 -3.49242 1.73698
upperneck -5.06471 -4.18857 9.4888
head -0.874638 -2.11203 2.6979
rclavicle -1.27222e-014 1.59028e-015
rhumerus -51.6693 8.95357 -87.2215
rradius 59.9737
rwrist -4.1794
rhand -20.9486 -21.3803
rfingers 7.12502
rthumb 5.42401 -51.2909
lclavicle -1.27222e-014 1.59028e-015
lhumerus -55.3749 -7.97681 69.9023
lradius 47.6312
lwrist -7.22071
lhand -4.41059 -0.676974
lfingers 7.12502
lthumb 21.3596 28.1658
rfemur -8.90751 24.8314 20.5166
rtibia 35.9051
rfoot -18.1916 4.89556
rtoes -8.98091
lfemur -24.9654 2.88333 2.11692
ltibia 37.9712
lfoot -21.8913 -10.0251
ltoes -5.22416
480
root -2.47117 17.5977 -10.6085 224.756 74.752 218.397
lowerback 20.5998 1.05801 -2.70682
upperback 3.53792 0.961177 -1.2751
thorax -7.68555 0.629316 -0.109394
lowerneck -3.24957 -3.42386 1.57572
upperneck -5.06478 -4.07934 9.84263
head -0.852042 -2.05095 2.84426
rclavicle -3.97569e-015 0
rhumerus -51.7878 9.25643 -87.6841
rradius 59.6275
rwrist -3.32757
rhand -21.0638 -20.9357
rfingers 7.12502
rthumb 5.31273 -50.8491
lclavicle -3.97569e-015 0
lhumerus -53.3035 -7.92556 68.8701
lradius 47.6702
lwrist -7.57368
lhand -4.9802 -0.797068
lfingers 7.12502
lthumb 20.8124 28.1067
rfemur -9.68163 24.182 20.1531
rtibia 37.0544
rfoot -18.1457 4.82037
rtoes -9.32868
lfemur -24.8842 3.01147 1.66851
ltibia 37.8204
lfoot -21.9623 -10.2431
ltoes -4.88631
481
root -2.40984 17.6235 -10.6734 223.958 74.7626 217.36
lowerback 20.7982 0.880283 -3.08645
upperback 3.52314 0.630132 -1.41068
thorax -7.80236 0.48139 0.0448017
lowerneck -3.34448 -3.35516 1.40502
upperneck -5.07659 -3.96938 10.1743
head -0.834504 -1.98973 2.98641
rclavicle -3.81667e-014 2.22639e-014
rhumerus -52.0081 9.60339 -88.1041
rradius 59.3988
rwrist -2.55447
rhand -20.7425 -20.1213
rfingers 7.12502
rthumb 5.62297 -50.0267
lclavicle -3.81667e-014 2.22639e-014
lhumerus -51.2008 -7.78649 67.8469
lradius 47.8927
lwrist -7.51772
lhand -5.61766 -0.854396
lfingers 7.12502
lthumb 20.1999 28.1153
rfemur -10.4618 23.4218 19.7907
rtibia 38.1188
rfoot -18.168 4.83078
rtoes -9.90965
lfemur -24.8019 3.08187 1.1959
ltibia 37.5808
lfoot -21.9749 -10.436
ltoes -4.5734
482
root -2.34928 17.6503 -10.7343 223.07 74.7341 216.22
lowerback 20.9893 0.699874 -3.45687
upperback 3.50621 0.297576 -1.52686
thorax -7.9147 0.333433 0.216814
lowerneck -3.43037 -3.2895 1.21924
upperneck -5.11133 -3.86139 10.4844
head -0.826296 -1.93026 3.12573
rclavicle -1.90833e-014 4.45278e-014
rhumerus -52.3198 9.97317 -88.4702
rradius 59.2769
rwrist -1.92977
rhand -20.0105 -18.9923
rfingers 7.12502
rthumb 6.3297 -48.8777
lclavicle -1.90833e-014 4.45278e-014
lhumerus -49.0515 -7.57964 66.8568
lradius 48.2699
lwrist -7.10499
lhand -6.25633 -0.82476
lfingers 7.12502
lthumb 19.5859 28.2087
rfemur -11.2485 22.5706 19.4639
rtibia 39.088
rfoot -18.2412 4.94979
rtoes -10.651
lfemur -24.7254 3.1105 0.736696
ltibia 37.2758
lfoot -21.9471 -10.616
ltoes -4.25994
483
root -2.28952 17.6768 -10.7912 222.172 74.663 215.061
lowerback 21.1689 0.522775 -3.79397
upperback 3.4887 -0.0229234 -1.62376
thorax -8.01893 0.19114 0.389078
lowerneck -3.50076 -3.23159 1.02031
upperneck -5.17246 -3.76079 10.777
head -0.829353 -1.87564 3.26332
rclavicle 4.77083e-015 -5.40694e-014
rhumerus -52.7085 10.3295 -88.7808
rradius 59.2371
rwrist -1.49984
rhand -18.9124 -17.6677
rfingers 7.12502
rthumb 7.38967 -47.5186
lclavicle 4.77083e-015 -5.40694e-014
lhumerus -46.8307 -7.32049 65.9102
lradius 48.7647
lwrist -6.43027
lhand -6.78161 -0.753548
lfingers 7.12502
lthumb 19.0809 28.3305
rfemur -12.041 21.6507 19.1952
rtibia 39.9649
rfoot -18.357 5.1702
rtoes -11.4912
lfemur -24.6529 3.11395 0.310362
ltibia 36.9226
lfoot -21.908 -10.7835
ltoes -3.9702
484
root -2.23023 17.7031 -10.8444 221.301 74.5567 213.936
lowerback 21.3399 0.355412 -4.09419
upperback 3.47731 -0.321112 -1.69875
thorax -8.11001 0.0591981 0.559391
lowerneck -3.54353 -3.18502 0.811215
upperneck -5.27253 -3.6711 11.0439
head -0.849832 -1.82861 3.39611
rclavicle 1.59028e-014 1.74931e-014
rhumerus -53.1502 10.6567 -89.0329
rradius 59.2435
rwrist -1.29899
rhand -17.4897 -16.2928
rfingers 7.12502
rthumb 8.76276 -46.0909
lclavicle 1.59028e-014 1.74931e-014
lhumerus -44.53 -7.01408 65.0242
lradius 49.341
lwrist -5.66142
lhand -7.16756 -0.646959
lfingers 7.12502
lthumb 18.7097 28.4733
rfemur -12.8258 20.6874 18.9959
rtibia 40.7538
rfoot -18.4957 5.46113
rtoes -12.3333
lfemur -24.5741 3.08755 -0.0746121
ltibia 36.5343
lfoot -21.8688 -10.9451
ltoes -3.6338
